<svg width="471" height="285" viewBox="0 0 471 285" fill="none" xmlns="http://www.w3.org/2000/svg">
<g clip-path="url(#clip0_812_692)">
<path d="M70.4028 108.665C70.4028 108.665 91.8391 131.654 95.8258 133.992C99.8125 136.33 87.5832 143.199 87.5832 143.199C87.5832 143.199 66.831 128.632 59.8277 116.268C52.8187 103.898 70.4084 108.665 70.4084 108.665H70.4028Z" fill="white" stroke="#1D1D1B" stroke-width="2.24287" stroke-miterlimit="10"/>
<path d="M69.2656 113.977C74.4837 108.759 76.3352 102.15 73.4009 99.2159C70.4667 96.2816 63.8579 98.1331 58.6397 103.351C53.4216 108.569 51.5701 115.178 54.5043 118.112C57.4386 121.047 64.0474 119.195 69.2656 113.977Z" fill="white" stroke="#1D1D1B" stroke-width="2.24287" stroke-miterlimit="10"/>
<path d="M23.4103 104.505L29.6903 107.976C44.3643 116.448 61.926 113.51 68.9069 101.415C72.4955 95.2024 72.5908 87.7897 69.8545 80.8929C69.1761 79.1883 69.8321 77.2595 71.3516 76.2277C73.8356 74.54 75.8037 72.1513 76.9756 69.3477C78.0915 66.6731 77.071 63.5779 74.5309 62.1874C72.6077 61.1332 70.3199 60.522 67.8696 60.522C67.8696 60.522 57.9897 60.0678 55.5338 76.2894C55.3656 77.4109 54.2161 78.1005 53.1451 77.7361L42.5307 74.0746C42.5307 74.0746 8.3774 63.606 12.6501 74.1363C12.6949 74.2484 12.6052 74.3662 12.4875 74.3437C8.77551 73.5755 -4.83872 74.1867 4.12155 86.6963C4.12155 86.6963 0.319885 91.5241 6.94757 95.4884C13.5753 99.4527 23.4046 104.51 23.4046 104.51L23.4103 104.505Z" fill="white" stroke="#1D1D1B" stroke-width="2.24287" stroke-miterlimit="10"/>
<path d="M34.1703 82.2213C34.1703 82.2213 22.5466 74.5003 12.4873 74.3376" stroke="#1D1D1B" stroke-width="2.24287" stroke-miterlimit="10"/>
<path d="M30.7225 90.4082C30.7225 90.4082 8.26017 79.676 4.12207 86.6906" stroke="#1D1D1B" stroke-width="2.24287" stroke-miterlimit="10"/>
<path d="M36.2729 78.3413C35.757 84.2232 32.9815 89.4827 30.8339 94.8432L30.8115 94.8993C30.7778 94.9946 30.6208 94.9778 30.6096 94.8712C30.0882 90.3855 31.8656 85.9951 33.8394 82.0588C34.5122 80.7355 35.2524 79.4459 36.0822 78.2179C36.1607 78.1226 36.3065 78.1843 36.2729 78.3413Z" fill="#1D1D1B"/>
<path d="M62.0156 90.8792C65.5257 94.8266 66.7313 100.378 65.8397 105.491C65.9463 101.236 64.595 96.8957 61.7297 93.7164C61.3596 93.3183 60.911 92.8529 60.5073 92.5445C59.2737 91.524 60.8718 89.7521 62.0156 90.8792Z" fill="#1D1D1B"/>
<path d="M400.607 108.665C400.607 108.665 379.17 131.654 375.184 133.992C371.197 136.33 383.426 143.199 383.426 143.199C383.426 143.199 404.178 128.632 411.182 116.268C418.191 103.898 400.601 108.665 400.601 108.665H400.607Z" fill="white" stroke="#1D1D1B" stroke-width="2.24287" stroke-miterlimit="10"/>
<path d="M416.501 118.112C419.435 115.178 417.583 108.569 412.365 103.351C407.147 98.1326 400.538 96.2811 397.604 99.2154C394.67 102.15 396.521 108.758 401.739 113.977C406.957 119.195 413.566 121.046 416.501 118.112Z" fill="white" stroke="#1D1D1B" stroke-width="2.24287" stroke-miterlimit="10"/>
<path d="M447.598 104.505L441.318 107.976C426.644 116.448 409.082 113.51 402.101 101.415C398.513 95.2024 398.417 87.7897 401.154 80.8929C401.832 79.1883 401.176 77.2595 399.657 76.2277C397.173 74.54 395.204 72.1513 394.033 69.3477C392.861 66.5441 393.937 63.5779 396.477 62.1874C398.401 61.1332 400.688 60.522 403.139 60.522C403.139 60.522 413.019 60.0678 415.474 76.2894C415.643 77.4109 416.792 78.1005 417.863 77.7361L428.478 74.0746C428.478 74.0746 462.631 63.606 458.358 74.1363C458.313 74.2484 458.403 74.3662 458.521 74.3437C462.233 73.5755 475.847 74.1867 466.887 86.6963C466.887 86.6963 470.688 91.5241 464.061 95.4884C457.433 99.4527 447.604 104.51 447.604 104.51L447.598 104.505Z" fill="white" stroke="#1D1D1B" stroke-width="2.24287" stroke-miterlimit="10"/>
<path d="M436.84 82.2213C436.84 82.2213 448.464 74.5003 458.523 74.3376" stroke="#1D1D1B" stroke-width="2.24287" stroke-miterlimit="10"/>
<path d="M440.281 90.4082C440.281 90.4082 462.744 79.676 466.882 86.6906" stroke="#1D1D1B" stroke-width="2.24287" stroke-miterlimit="10"/>
<path d="M434.923 78.218C439.975 81.1955 443.654 89.5782 440.373 94.9106C440.317 95.0003 440.166 94.9499 440.177 94.8433L440.216 93.7499C440.093 88.9614 438.013 84.4476 435.82 80.2703C435.478 79.6198 435.119 78.9694 434.738 78.3414C434.682 78.2573 434.789 78.1339 434.884 78.1956L434.929 78.218H434.923Z" fill="#1D1D1B"/>
<path d="M410.481 92.5554C407.285 95.2749 405.507 99.4634 405.216 103.618C405.165 104.241 405.182 104.863 405.165 105.491C405.092 104.874 404.98 104.252 404.935 103.618C404.621 99.755 405.575 95.7851 407.717 92.5217C408.104 91.961 408.457 91.4452 408.995 90.8788C410.145 89.7462 411.748 91.5405 410.487 92.5554H410.481Z" fill="#1D1D1B"/>
<path d="M308.759 261.214L290.861 283.705H304.672L313.419 263.261L308.759 261.214Z" fill="#1D1D1B"/>
<path d="M318.937 212.723L334.587 238.527C336.219 241.219 334.581 244.706 331.464 245.172L301.191 249.652C300.501 249.753 300.052 250.426 300.226 251.099L301.88 257.637C301.976 258.018 302.301 258.293 302.688 258.332C305.632 258.635 317.816 261.264 320.715 283.873H286.685C286.096 283.873 285.569 283.514 285.35 282.964L269.168 241.583C268.927 240.961 269.129 240.254 269.667 239.862C271.91 238.213 278.487 234.703 290.178 238.853L316.723 234.277C317.496 234.143 317.878 233.257 317.435 232.601L306.904 217.069L318.937 212.723Z" fill="white" stroke="#1D1D1B" stroke-width="2.24287" stroke-miterlimit="10"/>
<path d="M298.986 218.487L329.08 257.446C329.59 258.108 331.469 258.399 332.304 258.326C337.48 257.906 355.927 257.979 370.719 279.656C371.302 280.508 371.622 281.518 371.622 282.549V282.987C371.622 283.379 371.302 283.693 370.915 283.693H306.192C305.519 283.693 304.958 283.189 304.88 282.521C304.487 279.129 304.05 269.154 311.249 262.627C311.546 262.358 311.608 261.915 311.384 261.584L279.316 214.562L295.129 212.712L298.998 218.476L298.986 218.487Z" fill="white" stroke="#1D1D1B" stroke-width="2.24287" stroke-miterlimit="10"/>
<path d="M321.897 260.176C321.897 260.176 325.991 258.113 333.095 258.304" stroke="#1D1D1B" stroke-width="2.24287" stroke-miterlimit="10" stroke-linecap="round"/>
<path d="M321.897 219.211L311.316 222.025L308.378 217.422L318.936 212.723L321.897 219.211Z" fill="#1D1D1B"/>
<path d="M302.15 259.375L301.191 249.652L302.688 248.856L295.976 237.798L294.821 238.774L295.32 249.837C295.326 250.011 295.185 250.157 295.012 250.157H292.578C292.073 250.157 291.782 250.729 292.073 251.138L296.61 257.446C296.61 257.446 291.989 259.285 288.917 261.304C288.311 261.702 288.468 262.722 289.158 262.52C289.158 262.52 294.518 257.861 302.144 259.369L302.15 259.375Z" fill="#1D1D1B"/>
<path d="M359.885 80.6122C328.653 49.3802 278.02 49.3802 246.788 80.6122C245.426 81.9748 244.131 83.3654 242.886 84.8008C215.618 116.218 216.913 163.834 246.788 193.709C256.365 203.286 267.765 209.931 279.882 213.631C307.256 222.003 338.236 215.364 359.885 193.715C391.117 162.483 391.117 111.85 359.885 80.6178V80.6122Z" fill="white" stroke="#1D1D1B" stroke-width="2.24287" stroke-miterlimit="10"/>
<path d="M250.702 197.37C241.59 174.342 239.112 154.84 238.77 137.16C238.461 121.505 244.652 102.149 253.848 74.3376C240.502 83.354 230.824 102.172 228.739 109.024C227.931 109.741 227.157 111.171 226.849 112.242C226.636 112.988 226.63 113.801 226.591 114.597C226.412 118.713 225.458 122.638 224.421 126.501C223.687 127.14 223.586 127.965 223.787 129.013C223.883 129.518 224.09 130.006 224.202 130.505C224.371 131.251 224.32 131.996 224.286 132.731C224.129 136.017 224.275 139.359 224.724 142.706C224.786 143.155 224.707 143.323 224.791 143.771C225.144 145.622 224.982 147.45 225.139 149.3C225.335 151.605 226.036 153.904 226.726 156.186C227.92 160.111 227.959 164.361 229.961 168.05C230.471 168.981 230.684 169.503 230.937 170.501C231.161 171.387 231.553 172.239 231.94 173.086C232.596 174.51 233.252 175.934 233.908 177.364C234.525 178.698 235.776 179.657 236.426 180.981C237.177 182.506 237.895 184.059 238.854 185.483C239.813 186.907 249.199 196.546 250.702 197.359V197.37Z" fill="#E5E4E4"/>
<path d="M359.885 80.6122C328.653 49.3802 278.02 49.3802 246.788 80.6122C245.426 81.9748 244.131 83.3654 242.886 84.8008C215.618 116.218 216.913 163.834 246.788 193.709C256.365 203.286 267.765 209.931 279.882 213.631C307.256 222.003 338.236 215.364 359.885 193.715C391.117 162.483 391.117 111.85 359.885 80.6178V80.6122Z" stroke="#1D1D1B" stroke-width="2.24287" stroke-miterlimit="10"/>
<path d="M274.86 96.5388C277.652 94.9269 279.327 92.6027 278.603 91.3476C277.878 90.0925 275.028 90.3817 272.236 91.9936C269.444 93.6054 267.768 95.9296 268.493 97.1847C269.217 98.4398 272.068 98.1506 274.86 96.5388Z" fill="#1D1D1B" stroke="#1D1D1B" stroke-width="0.560718" stroke-linejoin="round"/>
<path d="M318.475 93.4817C319.2 92.2266 317.524 89.9025 314.732 88.2906C311.94 86.6787 309.089 86.3895 308.365 87.6447C307.64 88.8998 309.316 91.2239 312.108 92.8358C314.9 94.4476 317.75 94.7368 318.475 93.4817Z" fill="#1D1D1B" stroke="#1D1D1B" stroke-width="0.560718" stroke-linejoin="round"/>
<path d="M287.877 151.962C295.273 150.512 299.255 139.061 296.771 126.386C294.286 113.711 286.276 104.611 278.879 106.06C271.483 107.51 267.5 118.961 269.985 131.636C272.469 144.312 280.48 153.412 287.877 151.962Z" fill="white" stroke="#1D1D1B" stroke-width="2.24287" stroke-miterlimit="10"/>
<path d="M279.843 148.891C276.815 149.48 272.817 142.118 270.916 132.44C269.027 122.762 269.946 114.435 272.974 113.841C275.088 113.431 277.662 116.868 279.669 122.257C277.443 122.728 275.593 124.461 275.077 126.832C274.382 130.051 276.428 133.225 279.647 133.914C280.611 134.122 281.576 134.083 282.473 133.841C283.533 141.927 282.495 148.37 279.837 148.891H279.843Z" fill="#1D1D1B"/>
<path d="M319.686 147.019C327.083 145.569 331.065 134.118 328.581 121.443C326.096 108.768 318.086 99.6674 310.689 101.117C303.292 102.567 299.31 114.018 301.795 126.693C304.279 139.369 312.289 148.469 319.686 147.019Z" fill="white" stroke="#1D1D1B" stroke-width="2.24287" stroke-miterlimit="10"/>
<path d="M311.642 143.946C308.614 144.534 304.616 137.172 302.715 127.494C300.826 117.816 301.745 109.489 304.773 108.895C306.887 108.486 309.461 111.923 311.468 117.311C309.242 117.782 307.392 119.515 306.876 121.887C306.18 125.105 308.227 128.279 311.446 128.969C312.41 129.176 313.374 129.137 314.272 128.896C315.331 136.981 314.294 143.424 311.636 143.946H311.642Z" fill="#1D1D1B"/>
<path d="M274.679 166.746C275.065 166.436 274.738 165.388 273.948 164.405C273.159 163.423 272.206 162.878 271.819 163.189C271.433 163.499 271.76 164.547 272.55 165.53C273.339 166.512 274.293 167.057 274.679 166.746Z" fill="#1D1D1B" stroke="#1D1D1B" stroke-width="0.560718" stroke-linejoin="round"/>
<path d="M270.679 166.742C271.065 166.432 270.738 165.384 269.948 164.402C269.159 163.419 268.206 162.874 267.819 163.185C267.433 163.495 267.76 164.543 268.55 165.526C269.339 166.508 270.293 167.053 270.679 166.742Z" fill="#1D1D1B" stroke="#1D1D1B" stroke-width="0.560718" stroke-linejoin="round"/>
<path d="M322.324 165.516C323.114 164.534 323.441 163.486 323.055 163.175C322.669 162.865 321.715 163.41 320.926 164.392C320.136 165.375 319.809 166.423 320.195 166.733C320.582 167.043 321.535 166.499 322.324 165.516Z" fill="#1D1D1B" stroke="#1D1D1B" stroke-width="0.560718" stroke-linejoin="round"/>
<path d="M326.329 165.519C327.119 164.537 327.446 163.489 327.06 163.178C326.673 162.868 325.72 163.413 324.931 164.395C324.141 165.377 323.814 166.425 324.2 166.736C324.586 167.046 325.54 166.501 326.329 165.519Z" fill="#1D1D1B" stroke="#1D1D1B" stroke-width="0.560718" stroke-linejoin="round"/>
<path d="M281.218 175.497C281.218 180.498 288.081 184.608 297.434 184.608C306.781 184.608 313.448 180.756 313.543 175.76C313.756 164.535 311.435 171.919 297.434 172.02C283.517 172.127 281.218 165.701 281.218 175.497Z" fill="white" stroke="#1D1D1B" stroke-width="2.24287" stroke-linejoin="round"/>
<path d="M306.864 182.736V171.023" stroke="#1D1D1B" stroke-width="2.24287" stroke-linejoin="round"/>
<path d="M297.389 184.609V171.914" stroke="#1D1D1B" stroke-width="2.24287" stroke-linejoin="round"/>
<path d="M288.612 183.521V171.342" stroke="#1D1D1B" stroke-width="2.24287" stroke-linejoin="round"/>
<path d="M160.186 257.295L178.084 279.785H164.274L155.526 259.336L160.186 257.295Z" fill="#1D1D1B"/>
<path d="M150.008 208.803L134.359 234.608C132.727 237.299 134.364 240.787 137.482 241.252L167.755 245.732C168.445 245.833 168.893 246.506 168.72 247.179L167.065 253.717C166.97 254.098 166.645 254.373 166.258 254.412C163.314 254.715 151.13 257.345 148.231 279.953H182.261C182.85 279.953 183.377 279.594 183.595 279.045L199.778 237.664C200.019 237.041 199.817 236.335 199.279 235.942C197.036 234.294 190.459 230.784 178.768 234.933L152.223 230.357C151.449 230.223 151.068 229.337 151.511 228.681L162.041 213.149L150.008 208.803Z" fill="white" stroke="#1D1D1B" stroke-width="2.24287" stroke-miterlimit="10"/>
<path d="M169.954 214.567L139.86 253.526C139.35 254.188 137.471 254.479 136.636 254.406C131.46 253.986 113.013 254.059 98.2211 275.736C97.638 276.588 97.3184 277.598 97.3184 278.629V279.067C97.3184 279.459 97.638 279.773 98.0249 279.773H162.749C163.421 279.773 163.982 279.269 164.061 278.601C164.453 275.209 164.891 265.234 157.691 258.707C157.394 258.438 157.332 257.995 157.556 257.664L189.624 210.642L173.812 208.792L169.943 214.556L169.954 214.567Z" fill="white" stroke="#1D1D1B" stroke-width="2.24287" stroke-miterlimit="10"/>
<path d="M147.048 256.257C147.048 256.257 142.955 254.194 135.851 254.384" stroke="#1D1D1B" stroke-width="2.24287" stroke-miterlimit="10" stroke-linecap="round"/>
<path d="M147.048 215.291L157.629 218.1L160.567 213.497L150.008 208.803L147.048 215.291Z" fill="#1D1D1B"/>
<path d="M166.797 255.45L167.756 245.727L166.259 244.931L172.971 233.874L174.126 234.849L173.627 245.912C173.621 246.086 173.761 246.232 173.935 246.232H176.369C176.873 246.232 177.165 246.804 176.873 247.213L172.337 253.521C172.337 253.521 176.957 255.36 180.03 257.379C180.636 257.777 180.479 258.797 179.789 258.596C179.789 258.596 174.428 253.936 166.803 255.444L166.797 255.45Z" fill="#1D1D1B"/>
<path d="M245.579 133.242C245.579 177.409 209.777 213.211 165.609 213.211C163.686 213.211 161.78 213.144 159.89 213.009C118.391 210.077 85.6396 175.486 85.6396 133.242C85.6396 119.695 89.004 106.938 94.9532 95.7576C108.388 70.4804 134.988 53.272 165.609 53.272C209.777 53.272 245.579 89.0738 245.579 133.242Z" fill="#F07F00" stroke="#1D1D1B" stroke-width="2.24287" stroke-miterlimit="10"/>
<path d="M86.075 139.426C94.7886 155.613 103.67 172.037 115.922 184.782C126.778 196.069 139.859 204.026 152.907 211.579C145.965 211.04 139.074 209.257 132.749 205.887C131.673 205.949 130.108 205.484 129.138 204.945C128.46 204.57 127.882 203.998 127.293 203.46C124.26 200.678 120.806 198.576 117.341 196.58C116.371 196.647 115.715 196.137 115.115 195.251C114.829 194.83 114.627 194.337 114.352 193.899C113.943 193.254 113.382 192.761 112.838 192.268C110.405 190.058 108.145 187.586 106.093 184.905C105.818 184.547 105.644 184.479 105.386 184.104C104.326 182.545 102.919 181.367 101.725 179.949C100.233 178.177 99.1005 176.057 97.9791 173.96C96.0446 170.344 93.0672 167.304 91.8785 163.278C91.5757 162.258 91.3626 161.742 90.8355 160.856C90.3701 160.071 90.0393 159.191 89.7197 158.316C89.1758 156.841 88.6319 155.372 88.088 153.898C87.5778 152.518 87.7852 150.954 87.3086 149.558C86.7591 147.948 86.1704 146.345 85.8395 144.657C85.5087 142.969 85.5928 141.063 86.075 139.426Z" fill="#ED6C05"/>
<path d="M245.579 133.242C245.579 177.409 209.777 213.211 165.609 213.211C163.686 213.211 161.78 213.144 159.89 213.009C118.391 210.077 85.6396 175.486 85.6396 133.242C85.6396 119.695 89.004 106.938 94.9532 95.7576C108.388 70.4804 134.988 53.272 165.609 53.272C209.777 53.272 245.579 89.0738 245.579 133.242Z" stroke="#1D1D1B" stroke-width="2.24287" stroke-miterlimit="10"/>
<path d="M194.7 94.5218C195.424 93.2666 193.748 90.9425 190.957 89.3306C188.165 87.7188 185.314 87.4296 184.589 88.6847C183.865 89.9398 185.541 92.264 188.332 93.8758C191.124 95.4877 193.975 95.7769 194.7 94.5218Z" fill="#1D1D1B" stroke="#1D1D1B" stroke-width="0.560718" stroke-linejoin="round"/>
<path d="M143.319 92.4492C146.111 90.8373 147.786 88.5131 147.062 87.258C146.337 86.0029 143.487 86.2921 140.695 87.904C137.903 89.5158 136.227 91.84 136.952 93.0951C137.676 94.3502 140.527 94.061 143.319 92.4492Z" fill="#1D1D1B" stroke="#1D1D1B" stroke-width="0.560718" stroke-linejoin="round"/>
<path d="M190.022 161.594C190.811 160.612 191.138 159.564 190.752 159.253C190.366 158.943 189.413 159.488 188.623 160.47C187.833 161.453 187.506 162.501 187.893 162.811C188.279 163.121 189.232 162.577 190.022 161.594Z" fill="#1D1D1B" stroke="#1D1D1B" stroke-width="0.560718" stroke-linejoin="round"/>
<path d="M194.742 161.7C195.532 160.717 195.859 159.669 195.473 159.359C195.087 159.048 194.133 159.593 193.344 160.575C192.554 161.558 192.227 162.606 192.613 162.916C193 163.227 193.953 162.682 194.742 161.7Z" fill="#1D1D1B" stroke="#1D1D1B" stroke-width="0.560718" stroke-linejoin="round"/>
<path d="M149.304 161.698C149.69 161.388 149.363 160.34 148.573 159.358C147.784 158.375 146.831 157.83 146.444 158.141C146.058 158.451 146.385 159.499 147.175 160.482C147.964 161.464 148.918 162.009 149.304 161.698Z" fill="#1D1D1B" stroke="#1D1D1B" stroke-width="0.560718" stroke-linejoin="round"/>
<path d="M145.304 161.694C145.69 161.384 145.363 160.336 144.573 159.353C143.784 158.371 142.831 157.826 142.444 158.137C142.058 158.447 142.385 159.495 143.175 160.478C143.964 161.46 144.918 162.005 145.304 161.694Z" fill="#1D1D1B" stroke="#1D1D1B" stroke-width="0.560718" stroke-linejoin="round"/>
<path d="M185.486 171.578C185.486 176.579 178.622 180.69 169.27 180.69C159.917 180.69 153.256 176.837 153.16 171.841C152.947 160.616 155.269 168 169.27 168.101C183.187 168.208 185.486 161.782 185.486 171.578Z" fill="white" stroke="#1D1D1B" stroke-width="2.24287" stroke-linejoin="round"/>
<path d="M159.838 178.817V167.103" stroke="#1D1D1B" stroke-width="2.24287" stroke-linejoin="round"/>
<path d="M169.314 180.689V167.989" stroke="#1D1D1B" stroke-width="2.24287" stroke-linejoin="round"/>
<path d="M178.091 179.601V167.417" stroke="#1D1D1B" stroke-width="2.24287" stroke-linejoin="round"/>
<path d="M230.303 284.697C308.97 284.697 372.743 283.635 372.743 282.325C372.743 281.016 308.97 279.954 230.303 279.954C151.636 279.954 87.8643 281.016 87.8643 282.325C87.8643 283.635 151.636 284.697 230.303 284.697Z" fill="#1D1D1B" stroke="#1D1D1B" stroke-width="0.560718" stroke-miterlimit="10" stroke-linecap="round"/>
<path d="M191.382 130.221C193.867 117.546 189.885 106.095 182.488 104.645C175.091 103.196 167.081 112.296 164.596 124.971C162.112 137.646 166.094 149.097 173.491 150.547C180.887 151.997 188.898 142.897 191.382 130.221Z" fill="white" stroke="#1D1D1B" stroke-width="2.24287" stroke-miterlimit="10"/>
<path d="M181.516 147.439C184.544 148.027 188.542 140.665 190.443 130.987C192.332 121.309 191.413 112.983 188.385 112.388C186.271 111.979 183.697 115.416 181.69 120.805C183.916 121.276 185.766 123.008 186.282 125.38C186.977 128.599 184.931 131.772 181.712 132.462C180.748 132.669 179.783 132.63 178.886 132.389C177.827 140.475 178.864 146.917 181.522 147.439H181.516Z" fill="#1D1D1B"/>
<path d="M159.58 125.279C162.064 112.604 158.082 101.153 150.685 99.703C143.288 98.2532 135.278 107.353 132.794 120.029C130.309 132.704 134.291 144.155 141.688 145.605C149.085 147.055 157.095 137.954 159.58 125.279Z" fill="white" stroke="#1D1D1B" stroke-width="2.24287" stroke-miterlimit="10"/>
<path d="M149.719 142.498C152.747 143.087 156.745 135.725 158.646 126.047C160.535 116.369 159.616 108.042 156.588 107.448C154.474 107.039 151.9 110.476 149.893 115.864C152.119 116.335 153.969 118.068 154.485 120.44C155.181 123.658 153.134 126.832 149.915 127.522C148.951 127.729 147.987 127.69 147.089 127.449C146.03 135.534 147.067 141.977 149.725 142.498H149.719Z" fill="#1D1D1B"/>
<path d="M165.899 27.714C169.527 25.0002 182.564 16.567 197.204 23.0825C204.589 19.6958 209.854 22.8807 210.129 30.2261C222.459 36.0463 227.444 55.021 223.009 77.7357C223.009 77.7357 192.214 43.5992 156.098 56.2938C156.098 56.2938 136.579 62.7982 120.986 58.6993C105.392 54.6005 87.3035 18.6528 114.689 5.36382C141.475 -7.62801 150.951 13.0232 164.004 27.5402C164.492 28.0785 165.311 28.157 165.888 27.7197L165.899 27.714Z" fill="#4D83C3" stroke="#1D1D1B" stroke-width="2.24287" stroke-miterlimit="10"/>
<path d="M120.901 58.6384C120.901 58.6384 96.7737 49.3865 103.676 18.0144C103.676 18.0144 114.834 -0.349151 131.471 6.88411C153.978 16.6686 164.811 47.996 191.933 56.1824" stroke="#1D1D1B" stroke-width="2.24287" stroke-miterlimit="10" stroke-linecap="round"/>
<path d="M210.404 38.9282C211.767 49.1838 211.279 59.5683 208.683 65.1586" stroke="#1D1D1B" stroke-width="1.68215" stroke-miterlimit="10" stroke-linecap="round"/>
<path d="M177.927 26.2673C174.978 32.8502 173.161 36.1864 173.615 37.8125" stroke="#1D1D1B" stroke-width="1.68215" stroke-miterlimit="10" stroke-linecap="round"/>
<path d="M181.219 42.9604C181.219 42.9604 165.704 33.7197 160.585 23.5203" stroke="#1D1D1B" stroke-width="1.68215" stroke-miterlimit="10" stroke-linecap="round"/>
<path d="M304.7 30.1193C301.072 27.4054 288.035 18.9722 273.395 25.4878C266.01 22.1011 260.745 25.2859 260.47 32.6313C248.14 38.4516 243.155 57.4263 247.59 80.141C247.59 80.141 278.385 46.0045 314.501 58.6991C314.501 58.6991 334.02 65.2034 349.613 61.1046C365.201 57.0001 383.295 21.0581 355.91 7.7691C329.124 -5.22274 319.648 15.4285 306.595 29.9455C306.107 30.4838 305.288 30.5623 304.711 30.1249L304.7 30.1193Z" fill="#4D83C3" stroke="#1D1D1B" stroke-width="2.24287" stroke-miterlimit="10"/>
<path d="M349.699 61.0432C349.699 61.0432 373.826 51.7913 366.924 20.4192C366.924 20.4192 355.766 2.05563 339.129 9.2889C316.622 19.0734 305.789 50.4007 278.667 58.5872" stroke="#1D1D1B" stroke-width="2.24287" stroke-miterlimit="10" stroke-linecap="round"/>
<path d="M260.196 41.3342C258.834 51.5898 259.321 61.9743 261.918 67.5646" stroke="#1D1D1B" stroke-width="1.68215" stroke-miterlimit="10" stroke-linecap="round"/>
<path d="M292.674 28.6731C295.623 35.2559 297.44 38.5922 296.986 40.2183" stroke="#1D1D1B" stroke-width="1.68215" stroke-miterlimit="10" stroke-linecap="round"/>
<path d="M289.381 45.3656C289.381 45.3656 304.896 36.125 310.015 25.9255" stroke="#1D1D1B" stroke-width="1.68215" stroke-miterlimit="10" stroke-linecap="round"/>
</g>
<defs>
<clipPath id="clip0_812_692">
<rect width="471.003" height="284.878" fill="white" transform="translate(0 0.121582)"/>
</clipPath>
</defs>
</svg>
